<svg preserveAspectRatio="none" overflow="visible" style="display: block;" width="30" height="30" viewBox="0 0 30 30" fill="none" xmlns="http://www.w3.org/2000/svg">
<g id="Group 202">
<circle id="Ellipse 34" cx="15" cy="15" r="15" fill="currentColor"/>
<g id="solar:sun-bold">
<path id="Vector" d="M20 15C20 16.3261 19.4732 17.5979 18.5355 18.5355C17.5979 19.4732 16.3261 20 15 20C13.6739 20 12.4021 19.4732 11.4645 18.5355C10.5268 17.5979 10 16.3261 10 15C10 13.6739 10.5268 12.4021 11.4645 11.4645C12.4021 10.5268 13.6739 10 15 10C16.3261 10 17.5979 10.5268 18.5355 11.4645C19.4732 12.4021 20 13.6739 20 15Z" fill="white"/>
<path id="Vector_2" fill-rule="evenodd" clip-rule="evenodd" d="M15 6.04167C15.1658 6.04167 15.3247 6.10751 15.4419 6.22472C15.5592 6.34194 15.625 6.50091 15.625 6.66667V7.5C15.625 7.66576 15.5592 7.82473 15.4419 7.94194C15.3247 8.05915 15.1658 8.125 15 8.125C14.8342 8.125 14.6753 8.05915 14.5581 7.94194C14.4408 7.82473 14.375 7.66576 14.375 7.5V6.66667C14.375 6.50091 14.4408 6.34194 14.5581 6.22472C14.6753 6.10751 14.8342 6.04167 15 6.04167ZM8.66583 8.66583C8.78302 8.54879 8.94187 8.48305 9.1075 8.48305C9.27313 8.48305 9.43198 8.54879 9.54917 8.66583L9.87667 8.9925C9.99057 9.11032 10.0536 9.26817 10.0523 9.43204C10.051 9.59592 9.98529 9.75271 9.86947 9.86864C9.75364 9.98458 9.59692 10.0504 9.43304 10.0519C9.26917 10.0534 9.11126 9.99046 8.99333 9.87667L8.66583 9.54917C8.54879 9.43198 8.48305 9.27313 8.48305 9.1075C8.48305 8.94187 8.54879 8.78302 8.66583 8.66583ZM21.3342 8.66583C21.4512 8.78302 21.5169 8.94187 21.5169 9.1075C21.5169 9.27313 21.4512 9.43198 21.3342 9.54917L21.0067 9.87667C20.8882 9.98707 20.7315 10.0472 20.5696 10.0443C20.4076 10.0415 20.2532 9.97586 20.1386 9.86135C20.0241 9.74684 19.9585 9.59235 19.9557 9.43044C19.9528 9.26852 20.0129 9.11181 20.1233 8.99333L20.4508 8.66583C20.568 8.54879 20.7269 8.48305 20.8925 8.48305C21.0581 8.48305 21.217 8.54879 21.3342 8.66583ZM6.04167 15C6.04167 14.8342 6.10751 14.6753 6.22472 14.5581C6.34194 14.4408 6.50091 14.375 6.66667 14.375H7.5C7.66576 14.375 7.82473 14.4408 7.94194 14.5581C8.05915 14.6753 8.125 14.8342 8.125 15C8.125 15.1658 8.05915 15.3247 7.94194 15.4419C7.82473 15.5592 7.66576 15.625 7.5 15.625H6.66667C6.50091 15.625 6.34194 15.5592 6.22472 15.4419C6.10751 15.3247 6.04167 15.1658 6.04167 15ZM21.875 15C21.875 14.8342 21.9408 14.6753 22.0581 14.5581C22.1753 14.4408 22.3342 14.375 22.5 14.375H23.3333C23.4991 14.375 23.6581 14.4408 23.7753 14.5581C23.8925 14.6753 23.9583 14.8342 23.9583 15C23.9583 15.1658 23.8925 15.3247 23.7753 15.4419C23.6581 15.5592 23.4991 15.625 23.3333 15.625H22.5C22.3342 15.625 22.1753 15.5592 22.0581 15.4419C21.9408 15.3247 21.875 15.1658 21.875 15ZM20.1233 20.1233C20.2405 20.0063 20.3994 19.9406 20.565 19.9406C20.7306 19.9406 20.8895 20.0063 21.0067 20.1233L21.3342 20.4508C21.3956 20.5081 21.4448 20.5771 21.479 20.6537C21.5131 20.7304 21.5315 20.8131 21.533 20.8971C21.5345 20.981 21.519 21.0643 21.4876 21.1422C21.4562 21.22 21.4094 21.2907 21.35 21.35C21.2907 21.4094 21.22 21.4562 21.1422 21.4876C21.0643 21.519 20.981 21.5345 20.8971 21.533C20.8131 21.5315 20.7304 21.5131 20.6537 21.479C20.5771 21.4448 20.5081 21.3956 20.4508 21.3342L20.1233 21.0067C20.0063 20.8895 19.9406 20.7306 19.9406 20.565C19.9406 20.3994 20.0063 20.2405 20.1233 20.1233ZM9.87667 20.1233C9.99371 20.2405 10.0595 20.3994 10.0595 20.565C10.0595 20.7306 9.99371 20.8895 9.87667 21.0067L9.54917 21.3342C9.49195 21.3956 9.42295 21.4448 9.34628 21.479C9.26962 21.5131 9.18685 21.5315 9.10294 21.533C9.01902 21.5345 8.93566 21.519 8.85784 21.4876C8.78001 21.4562 8.70932 21.4094 8.64997 21.35C8.59062 21.2907 8.54383 21.22 8.5124 21.1422C8.48096 21.0643 8.46553 20.981 8.46701 20.8971C8.46849 20.8131 8.48686 20.7304 8.52102 20.6537C8.55518 20.5771 8.60443 20.5081 8.66583 20.4508L8.9925 20.1233C9.05054 20.0653 9.11946 20.0192 9.19531 19.9877C9.27117 19.9563 9.35247 19.9401 9.43458 19.9401C9.51669 19.9401 9.598 19.9563 9.67385 19.9877C9.74971 20.0192 9.81863 20.0653 9.87667 20.1233ZM15 21.875C15.1658 21.875 15.3247 21.9408 15.4419 22.0581C15.5592 22.1753 15.625 22.3342 15.625 22.5V23.3333C15.625 23.4991 15.5592 23.6581 15.4419 23.7753C15.3247 23.8925 15.1658 23.9583 15 23.9583C14.8342 23.9583 14.6753 23.8925 14.5581 23.7753C14.4408 23.6581 14.375 23.4991 14.375 23.3333V22.5C14.375 22.3342 14.4408 22.1753 14.5581 22.0581C14.6753 21.9408 14.8342 21.875 15 21.875Z" fill="white"/>
</g>
</g>
</svg>
